<?xml version="1.0" encoding="utf-8"?>
<svg version="1.1" id="Layer_1" xmlns="http://www.w3.org/2000/svg" xmlns:xlink="http://www.w3.org/1999/xlink" x="0px" y="0px"
	 viewBox="0 0 493.7 63.3" style="enable-background:new 0 0 493.7 63.3;" xml:space="preserve">
<style type="text/css">
	.st0{fill:#DA291C;}
	.st1{fill:#FFFFFF;}
</style>
<g>
	<g>
		<path class="st0" d="M4.5,63.3h120.2V26c0-3.2,1.7-5.9,4.6-6.2v-0.2h-15.8c-3.1,0-5.7,2.5-5.8,5.6l-0.2,8.9
			c-0.2,8.6-7.9,19.1-20.6,19.1c-12,0-19.4-10.7-19.4-18.9c0-10.9,7.4-15.6,13.9-15.6c8.1,0,11.9,7.2,11.9,7.6c0,0-2.1-1.2-4.7-1.2
			c-6.1,0-9.5,5.3-9.5,9.2c0,5.7,4.2,9.9,9.4,9.9c6.9,0,12.1-4.4,12.1-19.4V14.5c0-3.4,1.5-5.5,4.6-6.2V8.1H92.6L64.7,0L36.8,8.1
			H24.1v0.2c3.1,0.7,4.6,2.8,4.6,6.2v10.3c0,15,5.2,19.4,12.1,19.4c5.1,0,9.4-4.1,9.4-9.9c0-3.9-3.4-9.2-9.5-9.2
			c-2.7,0-4.7,1.2-4.7,1.2c0-0.4,3.9-7.6,11.9-7.6c6.5,0,13.9,4.7,13.9,15.6c0,8.2-7.4,18.9-19.4,18.9c-12.7,0-20.3-10.5-20.6-19.1
			l-0.2-8.9c-0.1-3.1-2.7-5.6-5.8-5.6H0v0.2c2.8,0.3,4.6,2.9,4.6,6.2L4.5,63.3L4.5,63.3z"/>
	</g>
	<g>
		<path class="st1" d="M437.4,55.6l20.3-8.9L446,41.6c-2-0.9-4.2-0.9-6.2,0l-15.5,6.8c-5.5,2.4-9,7.8-9,13.8v1.1l0,0h78.4V20.8
			c0-7.1-5.7-12.8-12.8-12.8h-5.6v17.4c0,3.1-2.5,5.6-5.6,5.6h-30.3c-3.1,0-5.6-2.5-5.6-5.6V8h-18.4v16.4c0,6.2,5,11.3,11.3,11.3
			h48.7v23.1h-37.1C436.3,58.7,435.8,56.3,437.4,55.6z"/>
		<path class="st1" d="M196.1,31.7l-14.2-6.2c-2-0.9-4.2-0.9-6.2,0l-20.6,9c-8,3.5-13.2,11.4-13.2,20.2v8.6h78.4V20.8
			c0-7.1-5.7-12.8-12.8-12.8h-65.6v10.4h11l2.6-1.1c7-3.1,14.5-4.6,22.2-4.6h24.2V42c0,4.8,1.9,9.5,5.3,12.9l3.9,3.9h-50.7v-1.4
			c0-6.1,3.6-11.6,9.2-14.1L196.1,31.7"/>
		<path class="st1" d="M378.3,31.7l-14.2-6.2c-2-0.9-4.2-0.9-6.2,0l-20.6,9c-8,3.5-13.2,11.4-13.2,20.2v8.6h78.4V20.8
			c0-7.1-5.7-12.8-12.8-12.8h-65.6v10.4h11l2.6-1.1c7-3.1,14.5-4.6,22.2-4.6h24.2V42c0,4.8,1.9,9.5,5.3,12.9l3.9,3.9h-50.7v-1.4
			c0-6.1,3.6-11.6,9.2-14.1L378.3,31.7"/>
		<path class="st1" d="M289.2,30.9l13.7-9.8c-5.5-8-14.7-13.2-25.2-13.2c-0.3,0-44.7,0-44.7,0v55.3h78.4v-2.9
			C311.4,46.3,302,34.5,289.2,30.9z M242.3,58.7l4-4c3.4-3.4,5.3-7.9,5.3-12.7V12.5h5c12.2,0,22.7,7.1,27.6,17.3
			c-1.1-0.1-2.2-0.2-3.3-0.2h-23.6v4.6h5.9c14.8,0,27.1,10.4,30,24.3C293.1,58.7,242.3,58.9,242.3,58.7z"/>
	</g>
</g>
</svg>
